<?xml version="1.0" standalone="no"?>
<!DOCTYPE svg PUBLIC "-//W3C//DTD SVG 20010904//EN"
 "http://www.w3.org/TR/2001/REC-SVG-20010904/DTD/svg10.dtd">
<svg version="1.0" xmlns="http://www.w3.org/2000/svg"
 width="168.000000pt" height="134.000000pt" viewBox="0 0 168.000000 134.000000" 
 preserveAspectRatio="xMidYMid meet">
  <circle cx="84" cy="67" r="90" stroke="black" stroke-width="3" fill="white" />

<g transform="translate(0.000000,134.000000) scale(0.100000,-0.100000)"
fill="#021036" stroke="#021036" stroke-width="20">
<path d="M1520 1128 c-46 -18 -80 -21 -203 -23 -118 -1 -147 1 -143 12 7 17 6
17 -78 -6 -39 -11 -104 -22 -143 -26 -64 -5 -72 -4 -67 10 5 13 2 15 -17 10
-13 -3 -80 -16 -149 -30 -130 -26 -216 -51 -238 -68 -20 -15 -14 -30 10 -24
12 4 27 2 34 -3 7 -7 24 -4 50 7 33 14 197 27 294 22 8 0 89 -1 180 -2 l165
-2 12 -35 c7 -19 12 -56 12 -81 1 -45 0 -46 -86 -121 -52 -45 -93 -88 -100
-107 -6 -18 -7 -31 -2 -31 12 0 89 61 176 138 35 31 72 61 82 67 30 17 101 78
101 87 0 17 -67 8 -85 -12 -26 -28 -35 -16 -35 45 0 51 1 54 31 64 18 6 41 11
52 11 23 0 124 45 148 67 9 8 39 23 65 33 43 17 46 19 19 19 -16 0 -55 -10
-85 -21z"/>
<path d="M1000 935 c0 -89 -89 -182 -185 -193 -55 -6 -49 -22 8 -22 41 -1 42
-1 17 -15 -14 -8 -32 -12 -42 -9 -9 3 -19 0 -23 -6 -9 -15 -136 -10 -162 6
-12 8 -31 14 -41 14 -19 0 -83 63 -115 113 -24 37 -38 34 -25 -5 6 -18 37 -58
69 -90 50 -48 66 -58 116 -68 100 -21 161 -112 93 -140 -38 -16 -38 -24 4 -60
60 -53 71 -160 30 -288 l-17 -53 34 -35 c52 -52 67 -40 63 49 -11 231 -4 295
37 365 34 59 22 92 -32 92 -15 0 -19 7 -19 33 1 29 7 36 75 75 56 33 82 55
100 86 50 85 65 186 29 186 -9 0 -14 -12 -14 -35z"/>
<path d="M356 925 c-16 -13 -33 -22 -38 -19 -6 4 -30 -15 -54 -42 -51 -55 -89
-154 -129 -335 -13 -59 -31 -124 -40 -145 -24 -58 -47 -125 -43 -129 2 -2 16
20 32 49 l29 53 96 6 c53 3 107 10 121 15 14 6 51 18 83 27 62 17 75 35 25 35
l-31 0 23 25 c13 14 37 29 52 33 56 14 32 27 -62 33 -52 4 -115 13 -140 21
-40 12 -45 17 -48 47 -7 73 47 198 129 293 38 45 35 67 -5 33z"/>
</g>
</svg>
